<svg xmlns="http://www.w3.org/2000/svg" width="259" height="249" viewBox="0 0 259 249" fill="none"><path d="M131.955 190.599C132.051 184.911 131.723 179.225 130.973 173.586C130.859 172.736 130.709 171.831 130.123 171.205C129.412 170.442 128.265 170.314 127.224 170.256C120.369 169.846 113.49 170.243 106.727 171.439C105.775 171.608 104.771 171.805 104.071 172.483C103.016 173.484 103.005 175.129 103.074 176.58C103.783 190.957 105.394 205.275 107.9 219.45C107.964 220.043 108.15 220.617 108.446 221.135C109.083 222.081 110.329 222.363 111.454 222.55C117.244 223.515 123.112 223.928 128.98 223.784C130.13 223.759 131.332 223.693 132.329 223.114C133.325 222.535 134.029 221.282 133.607 220.212" fill="#EBEBF6"></path><path d="M170.494 188.95C170.405 176.668 171.836 164.422 174.755 152.492C184.954 151.906 195.187 152.451 205.266 154.119C207.279 158.065 210.253 161.441 213.913 163.935C214.859 164.58 215.892 165.21 216.416 166.229C216.94 167.247 216.852 168.365 216.782 169.46C216.494 173.677 216.204 177.894 215.91 182.113" fill="#EBEBF6"></path><path d="M171.593 188.95C171.527 176.768 172.945 164.624 175.814 152.785L174.755 153.591C180.207 153.284 185.672 153.294 191.123 153.62C193.729 153.779 196.329 154.011 198.924 154.317C200.466 154.5 202.045 154.635 203.57 154.951C204.863 155.218 204.951 155.907 205.669 157.013C206.807 158.774 208.141 160.4 209.645 161.861C210.363 162.551 211.116 163.203 211.902 163.814C212.866 164.547 214.152 165.181 214.969 166.093C216.508 167.819 215.533 171.571 215.386 173.67L214.808 182.098C214.709 183.509 216.907 183.501 217.006 182.098C217.218 179.049 217.429 176.003 217.636 172.96C217.79 170.761 218.42 168.017 217.479 165.921C216.537 163.825 213.994 162.77 212.312 161.315C210.33 159.608 208.622 157.606 207.248 155.379C206.757 154.584 206.439 153.467 205.563 153.042C204.464 152.514 202.547 152.573 201.338 152.411C198.536 152.035 195.727 151.741 192.911 151.528C186.872 151.088 180.811 151.038 174.766 151.378C174.275 151.39 173.847 151.717 173.707 152.188C170.784 164.222 169.336 176.566 169.395 188.95C169.395 190.364 171.593 190.364 171.593 188.95Z" fill="#3858A9"></path><path d="M86.8423 21.1595C81.2545 20.2691 75.5898 19.375 69.9544 19.932C64.319 20.4889 58.6287 22.6764 54.9719 27.0001C48.6733 34.4528 50.4284 46.5261 57.0311 53.715C63.6338 60.904 73.7871 63.8646 83.5409 64.2127C86.2963 64.3116 89.0774 64.231 91.7888 64.7403C97.2069 65.7977 101.917 69.1151 104.738 73.8603C104.408 70.5846 104.079 67.3113 103.752 64.0405C109.882 64.6744 115.576 59.5739 117.159 53.6198C118.742 47.6656 116.98 41.2644 114.048 35.8452C109.585 27.5973 101.066 20.4303 91.7632 21.5955" fill="#EBEBF6"></path><path d="M133.054 190.599C133.129 185.625 132.884 180.651 132.321 175.708C132.134 174.063 132.164 172.007 131.061 170.659C130.093 169.475 128.65 169.277 127.213 169.164C122.253 168.817 117.271 168.939 112.334 169.53C109.201 169.878 103.65 169.67 102.312 173.242C101.748 174.748 101.946 176.444 102.037 178.005C102.179 180.639 102.35 183.272 102.55 185.905C102.929 190.808 103.41 195.702 103.994 200.587C104.561 205.329 105.225 210.059 105.987 214.778C106.313 216.805 106.354 219.285 107.222 221.169C107.907 222.678 109.362 223.275 110.908 223.568C116.059 224.495 121.284 224.94 126.517 224.899C129.632 224.899 135.872 224.778 134.67 219.908C134.329 218.534 132.211 219.117 132.548 220.491C133.347 223.73 123.656 222.671 121.941 222.583C118.324 222.4 114.539 222.172 111.003 221.352C108.853 220.853 108.897 218.904 108.578 217.032C108.259 215.159 107.948 213.247 107.658 211.349C107.057 207.413 106.526 203.468 106.064 199.514C105.202 192.129 104.58 184.719 104.199 177.284C104.122 175.697 103.833 173.759 105.467 172.887C107.101 172.015 109.794 172.004 111.63 171.787C115.272 171.353 118.937 171.148 122.604 171.175C124.377 171.175 126.799 170.893 128.496 171.502C130.449 172.201 130.181 176.085 130.346 177.796C130.743 182.041 130.909 186.304 130.845 190.566C130.826 191.98 133.021 191.984 133.043 190.566L133.054 190.599Z" fill="#3858A9"></path><path d="M108.215 180.354C108.354 181.984 108.003 185.337 110.468 185.257C111.201 185.231 112.147 184.89 112.539 184.245C113.052 183.37 112.572 181.864 112.465 180.926C112.345 179.863 112.465 178.361 111.949 177.404C111.538 176.624 110.403 176.466 109.585 176.466C108.672 176.435 107.902 177.14 107.852 178.053C107.739 179.423 108.153 180.984 108.303 182.369C108.453 183.754 110.655 183.776 110.501 182.369L110.256 180.127C110.19 179.533 109.915 178.621 110.12 178.049L109.615 178.716C109.75 178.624 110.392 178.8 110.655 178.899L109.886 178.13C110.359 179.456 110.293 181.182 110.45 182.574L110.505 183.043C110.505 183.318 110.523 183.351 110.582 183.146C110.641 182.941 110.655 182.974 110.655 183.183L110.615 182.714C110.553 181.93 110.479 181.145 110.414 180.365C110.293 178.965 108.094 178.951 108.215 180.365V180.354Z" fill="#3858A9"></path><path d="M140.855 112.03C140.855 112.03 134.26 111.216 132.618 113.715C130.977 116.214 131.973 119.248 133.186 124.707C134.399 130.167 131.654 135.524 132.618 138.103C133.582 140.683 133.105 142.548 137.22 142.867C141.335 143.186 136.912 149.272 135.956 152.452C135 155.632 132.482 163.17 134.611 163.47C136.74 163.77 152.932 164.064 155.171 163.104C157.409 162.144 158.468 161.924 158.945 156.548C159.421 151.173 163.136 140.555 170.56 138.741C177.983 136.927 197.766 128.793 200.606 124.063C203.445 119.332 203.269 120.373 201.657 116.368C200.045 112.363 197.132 105.255 197.132 105.255C197.132 105.255 195.087 94.5885 193.321 93.7091C191.555 92.8297 188.485 92.2141 187.825 97.0251C187.166 101.836 183.208 106.9 171.531 110.802C159.853 114.704 151.95 116.525 151.715 116.569C151.481 116.613 143.064 118.918 142.189 115.47" fill="#3858A9"></path><path d="M139.345 44.218C139.345 44.218 131.325 41.8217 130.445 36.2046C129.566 30.5876 137.202 23.307 146.399 23.0139C155.596 22.7207 175.169 23.6771 178.592 28.1436C182.014 32.6102 182.135 42.6278 183.765 41.3344C185.396 40.041 191.903 38.8904 195.161 46.9515C198.418 55.0125 196.549 60.5453 195.161 63.4766C193.772 66.4079 186.733 78.5177 186.733 78.5177C186.733 78.5177 186.367 82.3284 183.113 80.5953C179.859 78.8622 177.932 75.5095 177.496 73.8606C177.06 72.2118 173.751 68.2326 177.21 65.73C180.669 63.2274 185.311 56.665 182.168 52.8873C179.024 49.1096 176.979 47.175 174.73 48.4684C172.48 49.7618 171.582 52.3817 171.095 52.0079C170.607 51.6342 168.896 41.1365 168.896 41.1365L149.737 38.9088L147.472 38.6449C147.472 38.6449 140.214 37.6703 142.244 40.4367C144.274 43.2031 142.042 48.5344 142.244 47.3582C142.445 46.182 141.749 43.4412 139.345 44.218Z" fill="#3858A9"></path><path d="M142.299 43.1735C139.224 53.0244 132.957 61.5714 124.487 67.4665C124.2 67.644 124.008 67.9414 123.965 68.2762C123.922 68.611 124.031 68.9475 124.264 69.1923C126.985 72.3766 130.923 74.2647 135.11 74.3917L134.01 73.2924C135.247 88.0678 137.83 102.699 141.727 117.005C142.093 118.365 144.219 117.789 143.845 116.419C139.993 102.306 137.437 87.8703 136.209 73.2924C136.193 72.6918 135.71 72.2086 135.11 72.1932C131.506 72.0621 128.128 70.4064 125.817 67.6387L125.598 69.3645C134.548 63.162 141.172 54.1497 144.42 43.7561C144.841 42.404 142.72 41.8251 142.299 43.1735Z" fill="black"></path><path d="M137.872 36.0538C147.337 41.2459 158.278 41.6196 168.819 41.8211L167.76 41.015C168.493 45.4266 169.214 49.837 169.922 54.2461C170.12 55.4553 172.238 55.1878 172.084 53.9566C171.943 52.8536 172.259 51.7409 172.957 50.8757C173.656 50.0105 174.677 49.4677 175.785 49.3728C178.262 49.1786 180.453 51.2269 181.182 53.4473C182.871 58.5991 178.698 63.2525 174.953 66.1361C173.854 66.9862 174.953 68.8989 176.052 68.0341C181.138 64.1282 186.795 56.7267 182.014 50.3512C180.262 48.0171 177.184 46.5405 174.286 47.4455C171.538 48.3029 169.523 51.04 169.889 53.942L172.047 53.6489C171.315 49.2373 170.594 44.8269 169.886 40.4178C169.753 39.9403 169.318 39.6102 168.823 39.6117C158.684 39.4138 148.095 39.139 138.986 34.1412C137.744 33.4633 136.634 35.3576 137.887 36.0392L137.872 36.0538Z" fill="black"></path><path d="M175.785 54.3304L175.052 57.0088C174.686 58.3719 176.792 58.9545 177.17 57.5914L177.903 54.913C178.269 53.5463 176.159 52.9637 175.781 54.3304H175.785Z" fill="black"></path><path d="M136.161 43.646C138.067 44.4472 139.994 45.1922 141.943 45.8811C143.281 46.3537 143.856 44.2322 142.529 43.7632C140.575 43.0744 138.647 42.3293 136.744 41.5281C135.443 40.9785 134.875 43.1037 136.161 43.646Z" fill="black"></path><path d="M141.152 25.5564C149.043 23.6424 157.235 23.3123 165.254 24.5854C171.751 25.6333 182.135 28.1249 181.534 36.6769C181.435 38.0876 183.633 38.0803 183.732 36.6769C184.351 27.8611 174.938 24.2373 167.878 22.8376C158.839 21.0735 149.527 21.2822 140.576 23.4495C139.202 23.7756 139.785 25.8971 141.163 25.5673L141.152 25.5564Z" fill="black"></path><path d="M187.294 34.3757C187.322 36.0341 186.959 37.6759 186.235 39.1683C185.96 39.7362 186.136 40.6596 186.891 40.7805C191.368 41.5133 194.545 45.2324 195.626 49.5047C196.982 54.858 195.142 60.5484 192.995 65.4326C190.932 70.1192 188.338 74.5536 185.264 78.649C185.165 78.7773 184.205 80.2686 183.893 80.3748C183.135 80.6313 182.201 79.1327 181.9 78.671C181.194 77.5791 180.522 76.4652 179.885 75.3294C178.559 72.9479 177.397 70.4787 176.408 67.9389C175.898 66.6381 173.769 67.206 174.286 68.5251C175.493 71.6564 176.947 74.6864 178.635 77.5865C179.672 79.3526 181.427 83.4124 184.132 82.7712C185.341 82.4817 186.088 81.2103 186.784 80.2942C187.708 79.0851 188.592 77.8454 189.437 76.5752C191.363 73.6701 193.059 70.6197 194.512 67.4515C197.114 61.7685 199.356 55.2281 197.766 48.9405C196.513 43.9939 192.684 39.5164 187.506 38.681L188.162 40.2932C189.068 38.4595 189.533 36.4392 189.518 34.394C189.518 32.9833 187.319 32.9796 187.319 34.394L187.294 34.3757Z" fill="black"></path><path d="M157.823 59.0498C157.79 59.1157 157.629 59.1377 157.615 59.1817C157.6 59.2257 157.776 59.8009 157.787 59.9511C157.787 59.8632 157.787 60.3176 157.787 60.3176C157.877 60.1832 158.052 60.1362 158.197 60.2076L158.443 60.3652C158.289 60.3652 158.516 60.116 158.516 60.116C159.549 59.145 157.992 57.5915 156.962 58.5624C156.05 59.4308 155.979 60.8619 156.801 61.8162C157.783 62.8861 159.45 62.2779 159.872 60.9954C160.225 59.7967 159.938 58.5007 159.113 57.5621C158.226 56.6828 156.526 56.767 155.94 57.9542C155.313 59.2147 157.208 60.3322 157.838 59.0534L157.823 59.0498Z" fill="black"></path><path d="M145.318 60.662C145.285 60.728 145.127 60.75 145.109 60.7939C145.091 60.8379 145.274 61.4132 145.281 61.5634C145.287 61.6855 145.287 61.8078 145.281 61.9298C145.371 61.7955 145.546 61.7485 145.691 61.8199L145.937 61.9774C145.783 61.9958 146.01 61.7283 146.01 61.7283C147.044 60.7573 145.486 59.2037 144.457 60.1747C143.545 61.0431 143.474 62.4741 144.295 63.4284C145.277 64.4983 146.945 63.8901 147.37 62.6077C147.717 61.4082 147.43 60.1142 146.608 59.1744C145.721 58.295 144.024 58.3793 143.434 59.5628C142.808 60.8269 144.702 61.9408 145.332 60.662H145.318Z" fill="black"></path><path d="M145.263 74.4645C149.84 74.3981 154.337 73.2519 158.388 71.1192C158.721 70.9433 160.22 69.7891 160.538 69.8624C160.766 69.6023 160.868 69.7415 160.843 70.2838C160.931 70.5997 160.988 70.9238 161.011 71.2511C161.403 74.4865 159.842 78.4108 156.413 79.1766C154.394 79.6273 153.005 79.6126 151.686 77.8392C150.7 76.4618 150.062 74.8666 149.825 73.1894C149.597 71.7971 147.476 72.3906 147.707 73.7757C148.293 77.3262 150.605 81.9796 154.793 81.6462C156.625 81.4959 158.6 81.0782 160.022 79.8141C161.486 78.4534 162.507 76.684 162.953 74.7357C163.521 72.387 163.459 65.7037 159.414 67.9351C154.877 70.4377 150.499 72.1085 145.244 72.2368C143.834 72.2697 143.826 74.4682 145.244 74.4352L145.263 74.4645Z" fill="black"></path><path d="M150.667 78.7738C154.903 79.2172 158.549 77.0993 161.931 74.8093L160.597 73.0798C158.601 75.7028 155.615 77.3895 152.338 77.7442C150.946 77.8871 150.931 80.0892 152.338 79.9427C156.195 79.599 159.742 77.6877 162.151 74.6554C162.854 73.7613 161.949 72.1638 160.821 72.9296C157.743 75.0144 154.537 77.0004 150.667 76.5937C149.264 76.4434 149.271 78.6456 150.667 78.7921V78.7738Z" fill="black"></path><path d="M155.936 79.9134C157.498 79.7623 158.959 79.0763 160.073 77.9714C161.077 76.9711 159.523 75.4065 158.52 76.4178C157.834 77.1253 156.931 77.5831 155.955 77.7186C155.354 77.734 154.871 78.2172 154.855 78.8178C154.855 79.3601 155.361 79.9866 155.955 79.917L155.936 79.9134Z" fill="black"></path><path d="M140.195 118.35C156.399 117.424 172.101 112.391 185.824 103.726C187.015 102.972 185.912 101.07 184.725 101.828C171.341 110.303 156.021 115.232 140.206 116.151C138.799 116.232 138.792 118.43 140.206 118.35H140.195Z" fill="black"></path><path d="M135.831 110.747C133.267 110.04 130.837 111.846 130.09 114.29C129.067 117.632 131.006 121.307 131.596 124.549C132.35 128.734 131.889 132.61 131.504 136.773C131.218 139.843 132.904 141.848 135.802 142.635C138.99 143.496 142.573 143.526 145.856 143.603C149.397 143.694 152.939 143.551 156.46 143.174C163.512 142.407 170.438 140.746 177.071 138.231C184.553 135.392 191.578 131.468 197.92 126.587C199.019 125.733 197.92 123.824 196.82 124.689C187.233 132.07 176.11 137.204 164.272 139.711C158.224 140.997 152.046 141.573 145.864 141.43C142.976 141.364 139.939 141.283 137.103 140.697C135.839 140.437 134.406 140.038 133.86 138.755C133.204 137.213 134.04 134.798 134.179 133.149C134.484 129.509 134.213 125.844 133.376 122.289C132.962 120.515 132.204 118.742 132.057 116.917C131.911 115.092 132.867 112.19 135.256 112.85C136.619 113.216 137.202 111.109 135.839 110.732L135.831 110.747Z" fill="black"></path><path d="M190.925 93.1921C193.893 91.1586 195.183 99.3991 195.597 100.92L198.304 110.948C198.671 112.311 200.792 111.733 200.422 110.362C199.092 105.434 197.813 100.487 196.425 95.5738C195.644 92.8037 193.127 89.0334 189.829 91.2941C188.671 92.0892 189.767 93.9946 190.928 93.1921H190.925Z" fill="black"></path><path d="M136.901 147.021C134.576 152.168 133.112 157.661 132.567 163.283C132.567 163.777 132.897 164.21 133.373 164.341C141.955 165.835 150.756 165.497 159.197 163.348C159.673 163.217 160.003 162.784 160.003 162.29C159.697 154.684 162.116 147.219 166.826 141.239C167.698 140.14 166.152 138.579 165.272 139.686C160.161 146.085 157.512 154.105 157.805 162.29L158.611 161.227C150.556 163.292 142.155 163.633 133.959 162.227L134.765 163.286C135.275 158.05 136.637 152.933 138.796 148.135C139.375 146.856 137.48 145.739 136.898 147.036L136.901 147.021Z" fill="black"></path><path d="M132.098 168.09V169.86C132.098 170.467 132.59 170.959 133.197 170.959C133.804 170.959 134.296 170.467 134.296 169.86V168.09C134.296 167.483 133.804 166.991 133.197 166.991C132.59 166.991 132.098 167.483 132.098 168.09Z" fill="black"></path><path d="M137.667 169.109C137.593 169.904 137.734 170.705 138.074 171.428C138.308 171.974 139.111 172.095 139.576 171.824C140.087 171.506 140.261 170.845 139.972 170.318C140.027 170.45 139.928 170.156 139.917 170.131C139.899 170.05 139.877 169.973 139.862 169.896C139.847 169.819 139.833 169.735 139.844 169.805C139.832 169.572 139.839 169.34 139.866 169.109C139.866 168.501 139.373 168.009 138.766 168.009C138.167 168.027 137.684 168.509 137.667 169.109Z" fill="black"></path><path d="M144.31 169.394L144.761 171.681C144.923 172.266 145.528 172.608 146.113 172.447C146.691 172.276 147.031 171.679 146.882 171.095L146.428 168.823C146.333 168.434 146.033 168.128 145.647 168.023C145.26 167.919 144.847 168.033 144.569 168.322C144.291 168.61 144.192 169.026 144.31 169.409V169.394Z" fill="black"></path><path d="M150.88 168.064C150.605 169.226 150.792 170.449 151.4 171.475C152.133 172.692 154.024 171.585 153.298 170.376C152.976 169.865 152.868 169.248 152.998 168.658C153.306 167.28 151.188 166.694 150.88 168.075V168.064Z" fill="black"></path><path d="M157.138 167.086C157.079 167.869 157.176 168.657 157.424 169.402C157.598 169.977 158.193 170.315 158.776 170.168C159.361 170.006 159.703 169.4 159.542 168.816C159.353 168.26 159.283 167.671 159.337 167.086C159.337 166.479 158.845 165.987 158.237 165.987C157.635 165.999 157.15 166.484 157.138 167.086Z" fill="black"></path><path d="M204.665 112.623C211.532 107.328 220.787 110.083 226.796 115.283C233.117 120.739 237.789 128.334 241.819 135.578C250.301 150.928 255.249 167.978 256.304 185.483C257.194 200.645 256.04 219.281 243.633 229.925C236.983 235.63 227.932 238.268 219.545 240.185C210.945 242.119 202.136 242.962 193.325 242.695C183.341 242.41 173.447 240.719 163.935 237.671C159.224 236.186 154.637 234.336 150.213 232.138C146.413 230.229 142.408 227.646 141.485 223.205C141.196 221.82 139.078 222.407 139.364 223.788C141.034 231.801 150.968 235.202 157.658 237.781C175.365 244.54 194.532 246.546 213.254 243.6C222.319 242.178 231.868 239.833 239.877 235.209C255.204 226.349 258.766 208.138 258.689 191.745C258.554 173.08 254.077 154.702 245.612 138.066C243.245 133.407 240.567 128.913 237.595 124.615C234.832 120.625 231.842 116.69 228.127 113.535C221.451 107.87 211.118 104.895 203.555 110.725C202.456 111.575 203.555 113.487 204.654 112.623H204.665Z" fill="black"></path><path d="M137.997 218.929C137.938 214.874 138.587 210.839 139.913 207.006C140.785 204.504 143.53 197.073 147.425 198.791C148.19 199.129 149.04 198.736 149.077 197.842C149.363 191.43 157.746 191.086 162.444 190.855C168.306 190.573 174.169 190.716 180.031 190.778C191.35 190.895 202.892 190.668 213.587 186.539C214.892 186.033 214.32 183.908 213.001 184.421C200.99 189.06 188.03 188.671 175.371 188.525C169.31 188.455 163.1 188.261 157.08 189.089C152.254 189.752 147.109 192.387 146.868 197.842L148.52 196.893C144.043 194.918 140.741 199.561 139.111 203.122C136.852 208.081 135.716 213.477 135.784 218.926C135.784 220.34 137.982 220.344 137.982 218.926L137.997 218.929Z" fill="black"></path><path d="M181.244 170.512C188.169 170.693 195.085 171.059 201.99 171.611C203.401 171.721 203.394 169.523 201.99 169.413C195.087 168.87 188.172 168.504 181.244 168.313C179.83 168.277 179.83 170.475 181.244 170.512Z" fill="#3858A9"></path><path d="M180.233 180.09C187.83 180.075 195.418 180.302 202.998 180.771C204.409 180.859 204.405 178.661 202.998 178.573C195.426 178.104 187.837 177.877 180.233 177.891C178.819 177.891 178.819 180.09 180.233 180.09Z" fill="#3858A9"></path><path d="M137.114 185.817C139.107 186.799 140.448 189.17 141.643 190.976C142.94 192.936 143.94 194.977 144.343 197.304C144.581 198.696 146.699 198.106 146.461 196.721C145.996 194.014 144.739 191.61 143.2 189.364C141.855 187.4 140.419 185 138.22 183.919C136.956 183.296 135.842 185.19 137.121 185.817H137.114Z" fill="black"></path><path d="M116.58 186.74C118.361 188.363 120.512 189.166 122.809 189.73C125.689 190.43 128.598 191.027 131.489 191.672C132.867 191.98 133.457 189.862 132.076 189.554C129.566 188.994 127.052 188.455 124.542 187.872C122.245 187.352 119.911 186.817 118.119 185.187C117.075 184.234 115.518 185.784 116.565 186.74H116.58Z" fill="black"></path><path d="M116.866 195.728C117.612 196.526 118.59 197.068 119.662 197.278C120.244 197.423 120.838 197.087 121.014 196.512C121.175 195.928 120.833 195.322 120.248 195.16C119.545 195.042 118.9 194.694 118.416 194.171C117.449 193.138 115.895 194.695 116.862 195.728H116.866Z" fill="black"></path><path d="M118.108 203.841C119.522 203.841 119.526 201.642 118.108 201.642C116.69 201.642 116.694 203.841 118.108 203.841Z" fill="black"></path><path d="M117.815 203.808L120.182 204.797C120.732 205.024 121.391 204.552 121.534 204.028C121.681 203.446 121.343 202.851 120.768 202.679L118.398 201.686C117.852 201.459 117.192 201.935 117.046 202.456C116.903 203.039 117.24 203.633 117.815 203.808Z" fill="black"></path><path d="M119.409 212.792C124.539 215.723 130.427 217.984 136.095 219.692C136.967 219.955 137.561 219.124 137.447 218.339L137.381 217.936C137.158 216.54 135.04 217.134 135.26 218.519L135.326 218.926L136.678 217.574C131.182 215.914 125.517 213.759 120.519 210.894C119.292 210.187 118.181 212.085 119.42 212.792H119.409Z" fill="black"></path><path d="M130.845 116.301C128.529 114.708 125.052 115.045 122.472 115.646C118.665 116.532 115.144 118.723 113.015 122.047C110.003 126.759 107.662 132.079 105.357 137.165C103.356 141.587 101.51 146.072 99.6044 150.532C97.0798 156.434 94.383 162.257 91.4334 167.951H93.3314C88.165 157.479 84.3727 146.527 81.6063 135.201C79.3125 125.876 76.1687 115.224 66.653 110.886C65.3743 110.303 64.2567 112.198 65.5538 112.784C75.4799 117.309 77.737 128.866 80.1406 138.389C82.8253 148.983 86.6204 159.264 91.4627 169.061C91.6598 169.398 92.0211 169.605 92.4117 169.605C92.8023 169.605 93.1636 169.398 93.3607 169.061C97.8456 160.392 101.561 151.411 105.452 142.463C107.394 137.975 109.453 133.537 111.681 129.192C113.81 125.062 115.624 120.911 120.028 118.819C122.619 117.588 127.144 116.389 129.771 118.2C130.94 119.002 132.039 117.1 130.87 116.301H130.845Z" fill="black"></path><path d="M56.3569 107.467C53.9372 108.741 51.3803 109.736 48.7356 110.432C46.2623 111.073 43.7011 111.164 41.2315 111.758C37.9338 112.56 34.9586 116.118 37.5674 119.266L38.0547 117.434C27.7439 121.578 28.2129 133.886 29.4844 143.035C31.1259 154.877 33.7274 166.566 36.8126 178.115C39.6266 188.704 42.1036 200.191 48.8272 209.106C54.3362 216.341 61.8864 221.76 70.5041 224.664C79.9611 227.855 92.4484 228.592 100.509 221.732C101.59 220.813 100.029 219.267 98.9558 220.179C92.0856 226.041 81.3681 225.495 73.1752 223.187C64.8875 220.827 57.4895 216.054 51.9234 209.476C45.328 201.649 42.8034 191.595 40.1359 181.94C37.3292 171.776 34.8377 161.513 32.9983 151.125C31.9284 145.09 30.6093 138.766 30.939 132.61C31.2175 127.382 33.4599 121.64 38.6593 119.548C39.0343 119.443 39.3256 119.147 39.425 118.77C39.5244 118.394 39.4171 117.992 39.143 117.716C37.637 115.884 40.4401 114.224 41.8507 113.88C43.5729 113.458 45.3793 113.392 47.1234 113.055C50.7468 112.338 54.2462 111.096 57.5111 109.369C58.7679 108.717 57.6577 106.804 56.4119 107.471L56.3569 107.467Z" fill="black"></path><path d="M90.5284 166.753C91.9923 170.062 92.9069 173.588 93.2362 177.192C93.3644 178.591 95.5666 178.602 95.4347 177.192C95.0686 173.204 94.0524 169.302 92.4264 165.642C91.8548 164.353 89.9605 165.47 90.5284 166.742V166.753Z" fill="black"></path><path d="M41.3598 111.992C38.9488 109.794 37.7799 106.837 37.0764 103.708C36.3436 100.472 35.292 96.0352 38.2379 93.6132C39.3372 92.7155 37.7689 91.1693 36.6844 92.0596C33.3427 94.804 34.0022 99.3878 34.7241 103.177C35.4569 107.038 36.8419 110.842 39.8062 113.546C40.8468 114.499 42.4077 112.949 41.3598 111.992Z" fill="black"></path><path d="M39.8904 88.4616C40.8588 88.5882 41.7071 89.1733 42.1695 90.0335C42.8657 91.2647 44.7674 90.1581 44.0675 88.9343C43.1964 87.4155 41.6351 86.4212 39.8904 86.2742C39.2833 86.2742 38.7912 86.7663 38.7912 87.3734C38.8066 87.974 39.2898 88.4572 39.8904 88.4726V88.4616Z" fill="black"></path><path d="M44.4412 84.5079C45.4531 85.2588 46.3292 86.177 47.0318 87.223C47.8159 88.3882 49.7212 87.289 48.9298 86.1238C48.0155 84.769 46.8723 83.5836 45.5515 82.6209C45.0282 82.3152 44.3563 82.4905 44.0492 83.013C43.7556 83.539 43.9284 84.2029 44.4412 84.5189V84.5079Z" fill="black"></path><path d="M51.4288 72.0026V72.2554C51.4288 72.8625 51.9209 73.3546 52.528 73.3546C53.1351 73.3546 53.6272 72.8625 53.6272 72.2554V72.0026C53.6272 71.3955 53.1351 70.9033 52.528 70.9033C51.9209 70.9033 51.4288 71.3955 51.4288 72.0026Z" fill="black"></path><path d="M51.447 72.5046L52.6891 82.1192C52.8687 83.5006 55.0708 83.5189 54.8876 82.1192L53.6455 72.5046C53.4659 71.1232 51.2638 71.1049 51.447 72.5046Z" fill="black"></path><path d="M59.9074 107.947C62.4136 105.712 63.6008 102.561 63.9745 99.2816C64.3043 96.3503 63.828 92.6862 60.6036 91.587C57.6943 90.616 54.0082 91.8838 52.1468 94.2801C50.4174 96.5262 50.5822 100.472 54.0485 100.637C55.4628 100.703 55.4592 98.5048 54.0485 98.4389C53.345 98.4059 53.3157 96.5409 53.5868 96.0572C53.8722 95.5649 54.2564 95.1369 54.7153 94.8004C55.4614 94.2213 56.3299 93.8202 57.2546 93.6279C59.7681 93.0746 61.6515 94.2545 61.8604 96.8486C62.1498 100.278 60.9407 104.071 58.3538 106.375C57.2949 107.317 58.8521 108.867 59.9074 107.929V107.947Z" fill="black"></path><path d="M237.214 246.758C236.654 243.71 236.14 240.656 235.671 237.598C235.458 236.206 233.341 236.796 233.553 238.184C234.022 241.248 234.536 244.301 235.096 247.345C235.349 248.733 237.466 248.147 237.214 246.762V246.758Z" fill="black"></path><path d="M88.1797 17.4951C79.569 16.1247 70.4454 14.7873 62.2122 18.499C55.6718 21.4486 51.469 27.3662 51.0403 34.5405C50.6153 41.6342 53.7115 48.7352 58.9145 53.5022C64.5279 58.632 71.9587 61.2848 79.4078 62.2668C84.2591 62.9117 89.3962 62.2338 94.1265 63.5675C98.6085 64.8628 102.434 67.807 104.833 71.8081C105.357 72.6765 106.995 72.3907 106.881 71.2548C106.552 67.9889 106.223 64.7254 105.896 61.4643L104.796 62.5636C110.205 62.9813 115.126 59.6323 117.738 55.0302C120.809 49.6293 120.259 42.9863 118.152 37.3545C114.323 27.095 104.694 16.6377 92.8075 17.9348C91.4188 18.085 91.4004 20.2835 92.8075 20.1332C103.21 19.0083 111.659 27.7436 115.485 36.5924C117.661 41.6305 118.782 47.8302 116.335 52.9893C114.224 57.3935 109.846 60.7315 104.796 60.3651C104.189 60.3651 103.697 60.8572 103.697 61.4643C104.027 64.7376 104.355 68.0109 104.683 71.2841L106.731 70.7272C103.115 64.7657 97.0029 61.2482 90.1033 60.7242C86.0399 60.4127 82.013 60.5666 77.9788 59.8741C74.2736 59.2792 70.6722 58.1589 67.2833 56.5471C60.7832 53.3703 55.6205 48.0171 53.8397 40.8867C52.1286 34.0275 53.9276 26.5711 59.8928 22.361C67.9758 16.6523 78.4588 18.1876 87.5971 19.6422C88.9821 19.8621 89.5757 17.7442 88.1797 17.5244V17.4951Z" fill="#3858A9"></path><path d="M72.4826 36.8012C71.8197 37.507 71.5874 38.5146 71.8743 39.4394C72.2068 40.379 73.1136 40.9915 74.1095 40.949C75.0627 40.9052 75.8483 40.1862 75.976 39.2405C76.1038 38.2949 75.5372 37.3931 74.6298 37.098C74.2453 36.9747 73.8242 37.072 73.5329 37.3515C73.2416 37.631 73.1269 38.0478 73.2343 38.437C73.3417 38.8262 73.6537 39.1252 74.0472 39.2158C73.9772 39.1883 73.9127 39.1486 73.8566 39.0986C73.787 38.9923 73.7724 38.9703 73.8127 39.04C73.8456 39.0876 73.853 39.1096 73.8127 39.04C73.743 38.8787 73.831 39.1975 73.8127 39.0143C73.7943 38.8311 73.7907 39.1719 73.8127 38.985C73.8127 38.8971 73.8127 38.9044 73.8127 39.0107L73.853 38.9044L73.9995 38.7725C73.8969 38.7725 73.9043 38.8604 73.9995 38.7725C74.2084 38.7725 73.9043 38.7432 74.0325 38.7725C74.1608 38.8018 73.8823 38.7175 74.0142 38.7725C74.1461 38.8274 73.8603 38.7029 73.9885 38.7725C73.9116 38.6333 74.0508 38.8018 73.9885 38.7725C74.0655 38.9117 73.9885 38.7725 73.9666 38.7139C74.0069 38.9007 73.9849 38.4317 73.9666 38.6113C73.9666 38.3914 73.9482 38.5929 73.9995 38.4904C73.9995 38.4647 74.1424 38.2815 74.0618 38.3768C74.475 37.9413 74.475 37.2586 74.0618 36.8232C73.6327 36.3946 72.9374 36.3946 72.5082 36.8232L72.4826 36.8012Z" fill="#3858A9"></path><path d="M84.0649 37.1126C83.402 37.8184 83.1697 38.826 83.4566 39.7508C83.789 40.6904 84.6959 41.3029 85.6917 41.2604C86.645 41.2166 87.4306 40.4976 87.5583 39.5519C87.6861 38.6063 87.1195 37.7045 86.212 37.4094C85.8276 37.2861 85.4065 37.3834 85.1152 37.6629C84.8239 37.9424 84.7092 38.3592 84.8166 38.7484C84.9239 39.1376 85.236 39.4366 85.6295 39.5272C85.5595 39.4997 85.495 39.46 85.4389 39.41C85.3693 39.3001 85.3546 39.2818 85.3986 39.3514C85.4279 39.399 85.4426 39.421 85.3986 39.3514C85.3253 39.1901 85.3986 39.5089 85.3986 39.3257C85.3986 39.1425 85.373 39.4833 85.3986 39.2964C85.3986 39.2085 85.3986 39.2158 85.3986 39.3221L85.4389 39.2158L85.5855 39.0839C85.4829 39.0839 85.4902 39.1718 85.5855 39.0839C85.798 39.0839 85.4902 39.0546 85.6221 39.0839C85.754 39.1132 85.4682 39.0289 85.6001 39.0839H85.5745C85.4975 38.9447 85.6368 39.1132 85.5745 39.0839C85.6258 39.1755 85.5745 39.0839 85.5562 39.0253C85.5928 39.2121 85.5562 38.7431 85.5562 38.9227C85.5745 38.7028 85.5562 38.9043 85.5891 38.8018C85.5891 38.7761 85.732 38.5929 85.6514 38.6882C86.0646 38.2527 86.0646 37.57 85.6514 37.1346C85.2223 36.706 84.527 36.706 84.0979 37.1346L84.0649 37.1126Z" fill="#3858A9"></path><path d="M95.6361 37.4241C94.9747 38.1307 94.7425 39.1375 95.0279 40.0623C95.3603 41.0019 96.2672 41.6145 97.263 41.5719C98.2168 41.5297 99.0038 40.8112 99.1325 39.8651C99.2613 38.9191 98.6948 38.0164 97.787 37.7209C97.4043 37.6027 96.9877 37.7019 96.6994 37.9799C96.4111 38.2579 96.2968 38.6707 96.4011 39.0574C96.5054 39.444 96.8117 39.7434 97.2007 39.8388C97.1316 39.8097 97.0673 39.7701 97.0102 39.7215C96.9405 39.6116 96.9259 39.5933 96.9699 39.6629C96.9992 39.7105 97.0138 39.7325 96.9699 39.6629C96.9002 39.5017 96.9699 39.8168 96.9699 39.6372C96.9699 39.4577 96.9442 39.7948 96.9699 39.6079C96.9699 39.52 96.9699 39.5273 96.9699 39.6336L97.0102 39.5273L97.1567 39.3954C97.0578 39.3954 97.0651 39.4834 97.1567 39.3954C97.3692 39.3954 97.0651 39.3698 97.1934 39.3954C97.3216 39.4211 97.0395 39.3368 97.1714 39.3954C97.3033 39.454 97.0212 39.3295 97.1457 39.3954C97.0688 39.2562 97.208 39.4247 97.1457 39.3954C97.2227 39.5346 97.1457 39.3954 97.1274 39.3368C97.1677 39.5237 97.1274 39.051 97.1274 39.2342C97.1457 39.0143 97.1274 39.2342 97.1641 39.1133C97.1641 39.0876 97.3033 38.9044 97.2227 38.9997C97.6377 38.565 97.6377 37.8808 97.2227 37.4461C96.7935 37.0175 96.0983 37.0175 95.6691 37.4461L95.6361 37.4241Z" fill="#3858A9"></path><path d="M164.781 61.2739H168.204V64.6962H164.781V61.2739Z" fill="#EBEBF6"></path><path d="M140.001 135.344C140.8 134.127 141.921 132.361 143.456 132.013C145.127 131.647 146.322 133.153 147.487 134.072C149.121 135.355 151.111 135.904 152.983 134.728C154.753 133.611 155.636 131.577 157.061 130.119C159.219 127.92 161.407 129.533 163.558 130.852C165.349 131.951 167.438 132.929 169.504 131.951C171.501 131.002 172.256 128.858 173.33 127.081C175.063 124.223 177.265 125.682 179.727 126.671C182.483 127.77 184.454 126.99 186.275 124.722C187.396 123.329 188.392 121.84 189.254 120.273C189.694 119.471 189.987 118.537 190.474 117.771C191.207 116.576 192.112 116.745 193.248 117.423C194.384 118.101 195.651 118.888 197.084 118.478C198.244 118.176 199.054 117.13 199.055 115.931C199.085 114.513 196.89 114.517 196.857 115.931C196.828 117.152 193.288 114.858 192.665 114.671C191.672 114.321 190.571 114.476 189.712 115.085C188.635 115.913 188.246 117.445 187.656 118.603C186.779 120.31 185.728 121.922 184.52 123.414C183.421 124.744 182.428 125.334 180.739 124.718C179.504 124.271 178.368 123.549 177.074 123.252C174.927 122.732 173.11 123.56 171.857 125.323C170.736 126.898 169.951 130.192 167.581 130.188C165.353 130.188 163.323 127.862 161.293 127.122C159.442 126.406 157.344 126.823 155.907 128.192C154.379 129.555 153.529 131.929 151.723 132.955C149.414 134.248 147.054 130.251 144.761 129.848C141.738 129.316 139.565 132.046 138.096 134.27C137.319 135.457 139.221 136.56 139.994 135.37L140.001 135.344Z" fill="#EBEBF6"></path><path d="M136.857 129.467L137.11 129.716C137.543 130.119 138.218 130.107 138.637 129.689C139.055 129.27 139.067 128.595 138.664 128.162L138.411 127.913C137.978 127.509 137.303 127.521 136.884 127.94C136.466 128.359 136.454 129.034 136.857 129.467Z" fill="#EBEBF6"></path><path d="M151.426 127.466L151.924 126.964C152.328 126.531 152.316 125.856 151.897 125.437C151.479 125.019 150.804 125.007 150.371 125.41L149.865 125.909C149.435 126.339 149.435 127.036 149.865 127.466C150.295 127.896 150.992 127.896 151.422 127.466H151.426Z" fill="#EBEBF6"></path><path d="M167.163 121.336H166.91C166.303 121.336 165.811 121.828 165.811 122.435C165.811 123.042 166.303 123.534 166.91 123.534H167.163C167.77 123.534 168.262 123.042 168.262 122.435C168.262 121.828 167.77 121.336 167.163 121.336Z" fill="#EBEBF6"></path><path d="M180.684 118.441L181.186 117.943C181.614 117.514 181.614 116.818 181.186 116.389C180.752 115.972 180.066 115.972 179.632 116.389L179.13 116.887C178.726 117.321 178.738 117.995 179.157 118.414C179.576 118.833 180.251 118.845 180.684 118.441Z" fill="#EBEBF6"></path><path d="M194.201 110.699L194.45 110.45C194.853 110.017 194.841 109.342 194.423 108.923C194.004 108.505 193.329 108.493 192.896 108.896L192.647 109.146C192.243 109.579 192.255 110.254 192.674 110.672C193.092 111.091 193.767 111.103 194.201 110.699Z" fill="#EBEBF6"></path><path d="M19.639 109.464C14.3371 117.386 13.89 127.162 13.6299 136.388C13.5933 137.806 15.7881 137.802 15.8284 136.388C16.0775 127.536 16.4476 118.178 21.537 110.571C22.3248 109.395 20.4378 108.292 19.639 109.472V109.464Z" fill="#3858A9"></path><path d="M2.20153 122.443C2.3843 119.714 3.10007 117.047 4.30839 114.594C4.92763 113.33 3.03328 112.216 2.41039 113.495C1.0299 116.291 0.211986 119.331 0.00306921 122.443C-0.0921975 123.857 2.10627 123.85 2.20153 122.443Z" fill="#3858A9"></path><path d="M121.805 7.96859L126.536 14.586C127.353 15.7255 129.262 14.6299 128.434 13.4867L123.703 6.86936C122.89 5.72982 120.981 6.82539 121.805 7.96859Z" fill="#3858A9"></path><path d="M134.93 2.21593L136.062 9.91055C136.271 11.3066 138.389 10.713 138.184 9.32795L137.048 1.63333C136.843 0.237308 134.725 0.830893 134.93 2.21593Z" fill="#3858A9"></path><path d="M147.626 3.40308C147.93 5.76865 147.74 8.17149 147.069 10.4601C146.67 11.8195 148.791 12.4021 149.187 11.0427C149.923 8.5672 150.14 5.96637 149.825 3.40308C149.652 2.01805 147.454 1.99972 147.626 3.40308Z" fill="#3858A9"></path></svg>